<svg height="512" viewBox="0 0 512 512" width="512" xmlns="http://www.w3.org/2000/svg"><g id="filled_outline" data-name="filled outline"><path d="m441.044 488h-96a283.964 283.964 0 0 1 -18.754-85.2l-5.246-83.941v-40h144v40l-5.244 83.941a283.964 283.964 0 0 1 -18.756 85.2z" fill="#63aad1"/><path d="m432 488h-96a283.964 283.964 0 0 1 -18.754-85.2l-5.246-83.944v-40h144v40l-5.246 83.944a283.964 283.964 0 0 1 -18.754 85.2z" fill="#6cbae5"/><path d="m465.044 278.856h-144l8-21.333 2.8-14.933a34 34 0 0 1 33.418-27.734h55.565a34 34 0 0 1 33.417 27.734l2.8 14.933z" fill="#63aad1"/><path d="m456 278.856h-144l8-21.333 2.8-14.933a34 34 0 0 1 33.417-27.734h55.566a34 34 0 0 1 33.417 27.734l2.8 14.933z" fill="#6cbae5"/><path d="m416 214.856h-48v-20a12 12 0 0 1 12-12h24a12 12 0 0 1 12 12z" fill="#4799cf"/><path d="m321.044 278.856h144v40h-144z" fill="#418bbd"/><path d="m312 278.856h144v40h-144z" fill="#4799cf"/><path d="m417.048 464a8.007 8.007 0 0 1 -7.7-10.2l2.69-9.415a8 8 0 0 1 15.385 4.4l-2.691 9.415a8 8 0 0 1 -7.684 5.8z" fill="#76ccfb"/><path d="m427 424a8.086 8.086 0 0 1 -1.5-.141 8 8 0 0 1 -6.37-9.35 338.691 338.691 0 0 0 5.917-62.959 8 8 0 0 1 16 0 354.884 354.884 0 0 1 -6.2 65.939 8 8 0 0 1 -7.847 6.511z" fill="#76ccfb"/><path d="m184 488h-112l27.38-16.43a25.985 25.985 0 0 0 12.62-22.29v-121.28h32v121.28a25.985 25.985 0 0 0 12.62 22.29z" fill="#cbcbcb"/><path d="m174 488h-102l27.38-16.43a25.985 25.985 0 0 0 12.62-22.29v-121.28h22v121.28a25.985 25.985 0 0 0 12.62 22.29z" fill="#dbdbdb"/><path d="m216 224-19.2 32-44.57 74.28a28.259 28.259 0 0 1 -24.23 13.72 27.876 27.876 0 0 1 -5.5-.54 28.285 28.285 0 0 1 -18.73-13.18l-44.57-74.28-19.2-32z" fill="#dbdbdb"/><path d="m205 224-19.2 32-44.57 74.28a28.285 28.285 0 0 1 -18.73 13.18 28.285 28.285 0 0 1 -18.73-13.18l-44.57-74.28-19.2-32z" fill="#ebebeb"/><path d="m337.7 488h-99.81a20.007 20.007 0 0 1 -19.9-21.99l7.6-75.91a573.827 573.827 0 0 0 -1.09-124.08l-5.49-46.69a50.018 50.018 0 0 1 18.15-44.67l22-17.86a15.98 15.98 0 0 0 5.92-12.42v-88.38h47.96v88.73a16 16 0 0 0 5.48 12.05l20.46 17.88a49.988 49.988 0 0 1 17.65 44.25l-5.54 47.11a573.827 573.827 0 0 0 -1.09 124.08l7.6 75.91a20.007 20.007 0 0 1 -19.9 21.99z" fill="#6b9777"/><path d="m327.8 488h-89.91a20.007 20.007 0 0 1 -19.9-21.99l7.6-75.91a573.827 573.827 0 0 0 -1.09-124.08l-5.49-46.69a50.018 50.018 0 0 1 18.15-44.67l22-17.86a15.98 15.98 0 0 0 5.92-12.42v-88.38h38.07v88.73a16 16 0 0 0 5.48 12.05l20.46 17.88a50.014 50.014 0 0 1 17.65 44.25l-5.55 47.11a573.826 573.826 0 0 0 -1.08 124.08l7.59 75.91a20 20 0 0 1 -19.9 21.99z" fill="#85bc94"/><path d="m258.214 24h61.581v32h-61.581z" fill="#6b9777"/><path d="m304 24h15.795v32h-15.795z" fill="#5e8569"/><path d="m319.8 420.061a131.952 131.952 0 0 1 -64 0v-168a131.927 131.927 0 0 1 64 0z" fill="#ebebeb"/><circle cx="287.795" cy="252.061" fill="#dc4d41" r="32"/><path d="m265.044 56h48v48h-48z" fill="#fbb540"/><path d="m304 56h9.044v48h-9.044z" fill="#ea9d2d"/><path d="m289.044 464h-24a8 8 0 0 1 0-16h24a8 8 0 0 1 0 16z" fill="#9ddeaf"/><path d="m321.044 464h-8a8 8 0 0 1 0-16h8a8 8 0 0 1 0 16z" fill="#9ddeaf"/><path d="m196.8 256-44.57 74.28a28.259 28.259 0 0 1 -24.23 13.72 27.423 27.423 0 0 1 -5.6-.57 28.229 28.229 0 0 1 -18.63-13.15l-44.57-74.28z" fill="#ea9d2d"/><path d="m185.6 256-44.57 74.28a28.229 28.229 0 0 1 -18.63 13.15 28.229 28.229 0 0 1 -18.63-13.15l-44.57-74.28z" fill="#fbb540"/><path d="m108.1 306.857a8 8 0 0 1 -6.687-12.38l92.937-142.044a8 8 0 1 1 13.388 8.759l-92.932 142.044a7.992 7.992 0 0 1 -6.706 3.621z" fill="#744630"/><circle cx="156.665" cy="222.406" fill="#dc4d41" r="24"/><circle cx="131.306" cy="259.888" fill="#5e8569" r="24"/><path d="m321.735 427.821a8 8 0 0 0 6.06-7.76v-168a40 40 0 1 0 -80 0v168a8 8 0 0 0 6.059 7.76 140.405 140.405 0 0 0 67.881 0zm-33.935-199.76a24.029 24.029 0 0 1 21.7 13.764 140.763 140.763 0 0 0 -43.4 0 24.028 24.028 0 0 1 21.7-13.764zm23.168 30.254a24 24 0 0 1 -46.336 0 124.606 124.606 0 0 1 46.331 0zm-47.168 25.724a39.912 39.912 0 0 0 48 0v129.613a124.482 124.482 0 0 1 -48 0z"/><path d="m289.044 448h-24a8 8 0 0 0 0 16h24a8 8 0 0 0 0-16z"/><path d="m321.044 448h-8a8 8 0 0 0 0 16h8a8 8 0 0 0 0-16z"/><path d="m472.526 276.06v-.008l-7.756-20.69-2.67-14.244a42 42 0 0 0 -38.1-34.13v-12.132a20.023 20.023 0 0 0 -20-20h-24a20.028 20.028 0 0 0 -19.534 15.744 57.954 57.954 0 0 0 -16.289-22.031l-20.4-17.815a8 8 0 0 1 -2.737-6.025v-80.836a8 8 0 0 0 6.76-7.893v-32a8 8 0 0 0 -8-8h-61.586a8 8 0 0 0 -8 8v32a8 8 0 0 0 6.83 7.905l.036 80.474a7.967 7.967 0 0 1 -2.958 6.212l-22 17.858a57.675 57.675 0 0 0 -21.397 47.551h-22.714a31.816 31.816 0 0 0 -6.849-14.192l26.572-40.619a8 8 0 1 0 -13.388-8.759l-26.238 40.107a31.977 31.977 0 0 0 -42.802 23.463h-85.306a8 8 0 0 0 -6.86 12.116l63.771 106.284a35.987 35.987 0 0 0 7.089 8.473v106.407a18.073 18.073 0 0 1 -8.736 15.431l-27.38 16.43a8 8 0 0 0 4.116 14.859h112a8 8 0 0 0 4.116-14.859l-27.385-16.434a18.067 18.067 0 0 1 -8.731-15.427v-106.407a36.025 36.025 0 0 0 7.091-8.477l54.68-91.131 2.787 23.69a566.5 566.5 0 0 1 1.067 122.345l-7.591 75.912a28 28 0 0 0 27.866 30.788h99.8a27.883 27.883 0 0 0 4.806-.425 7.979 7.979 0 0 0 2.539.425h96a8 8 0 0 0 7.455-5.1 291.573 291.573 0 0 0 19.289-87.6l5.24-83.94c.011-.166.016-.332.016-.5v-40a7.957 7.957 0 0 0 -.519-2.8zm-15.486 34.8h-101.432q.469-12.015 1.453-24h99.979zm-10.663-66.8 2.8 14.93a8.123 8.123 0 0 0 .372 1.334l3.951 10.536h-94.9c.144-1.3 5.616-47.967 5.616-47.967.347-.014 56.614-.033 56.614-.033a26 26 0 0 1 25.547 21.204zm-70.377-49.204a4 4 0 0 1 4-4h24a4 4 0 0 1 4 4v12h-32zm-102.92-130.856h31.964v32h-31.964zm-6.866-32h45.586v16h-45.586zm-73.944 216h-16.44a32.017 32.017 0 0 0 11.359-16h14.681zm-68.53 25.986c-.073-.041-.144-.088-.218-.127-.4-.224-.8-.458-1.182-.718a16 16 0 0 1 5.935-28.962 16.093 16.093 0 0 1 3.064-.3 16 16 0 1 1 -7.6 30.1zm29.891-67.29a16 16 0 0 1 18.744 12.681 15.955 15.955 0 0 1 -12.681 18.737 15.937 15.937 0 0 1 -4.766.181 32.2 32.2 0 0 0 -12.368-8.368 15.832 15.832 0 0 1 -1.6-4.48 15.4 15.4 0 0 1 -.256-1.99 16 16 0 0 1 12.927-16.757zm-38.031 25.304a31.867 31.867 0 0 0 -10.8 9.957 32.2 32.2 0 0 0 -3.206 6.043h-37.864l-9.6-16zm36.9 246.43 2.62 1.57h-54.24l2.611-1.566a34.15 34.15 0 0 0 16.509-29.154v-98.2a35.057 35.057 0 0 0 16 0v98.2a34.144 34.144 0 0 0 16.5 29.15zm-7.132-152.268a20.256 20.256 0 0 1 -34.742 0l-37.296-62.162h26.246c.085.65.184 1.3.309 1.95a31.757 31.757 0 0 0 9.134 16.9l-7.605 11.632a8 8 0 1 0 13.393 8.756l8.149-12.463a31.607 31.607 0 0 0 8.283 1.123 32.435 32.435 0 0 0 6.128-.588 32.023 32.023 0 0 0 25.68-27.31h19.623zm83.632 149.89a11.86 11.86 0 0 1 -3.043-9.246l7.591-75.912a582.452 582.452 0 0 0 -1.1-125.808l-5.493-46.694a41.793 41.793 0 0 1 15.245-37.519l22-17.858a23.9 23.9 0 0 0 8.876-18.636v-32.379h31.964v32.731a24 24 0 0 0 8.212 18.076l20.462 17.874.141.12a41.857 41.857 0 0 1 14.825 37.173l-5.542 47.112q-.744 6.322-1.337 12.666c-.029.21-.049.423-.062.638a582.575 582.575 0 0 0 .3 112.5l7.591 75.912a12 12 0 0 1 -11.93 13.198h-99.8a11.864 11.864 0 0 1 -8.9-3.948zm206.511 3.948h-72.532a28.033 28.033 0 0 0 2.577-14.786l-7.591-75.914a566.027 566.027 0 0 1 -2.76-62.442h101.32l-4.71 75.439a275.6 275.6 0 0 1 -16.304 77.703z"/><path d="m421.933 438.893a8 8 0 0 0 -9.891 5.494l-2.69 9.415a8 8 0 1 0 15.384 4.4l2.691-9.415a8 8 0 0 0 -5.494-9.894z"/><path d="m433.044 343.551a8 8 0 0 0 -8 8 338.691 338.691 0 0 1 -5.917 62.959 8 8 0 0 0 6.37 9.35 8.086 8.086 0 0 0 1.503.14 8 8 0 0 0 7.852-6.511 354.884 354.884 0 0 0 6.2-65.939 8 8 0 0 0 -8.008-7.999z"/></g></svg>